<svg width="640" height="640" viewBox="0 0 640 640" fill="none" xmlns="http://www.w3.org/2000/svg">
<path d="M319.999 141.956C345.666 141.956 366.477 121.146 366.477 95.4777C366.477 69.8099 345.666 48.999 319.999 48.999C294.331 48.999 273.52 69.8099 273.52 95.4777C273.52 121.146 294.331 141.956 319.999 141.956Z" fill="white"/>
<path d="M256.635 242.661L289.004 192.309H296.75L278.767 242.661H357.339L339.356 192.309H347.102L379.471 242.661H422.735L412.695 190.454C408.582 169.047 389.855 153.577 368.06 153.577H271.923C250.124 153.577 231.397 169.047 227.284 190.454L217.248 242.661H256.635Z" fill="white"/>
<path d="M306.61 376.766L428.446 327.673V327.67L447.163 320.128H490.418V258.156H149.574V320.128H211.546V423.419L245.866 405.091L211.631 320.128H229.448L268.982 394.312L276.477 391.29L283.495 387.545L256.328 320.128H276.426L306.61 376.766ZM319.999 141.956C345.666 141.956 366.477 121.146 366.477 95.4777C366.477 69.8099 345.666 48.999 319.999 48.999C294.331 48.999 273.52 69.8099 273.52 95.4777C273.52 121.146 294.331 141.956 319.999 141.956ZM256.635 242.661L289.004 192.309H296.75L278.767 242.661H357.339L339.356 192.309H347.102L379.471 242.661H422.735L412.695 190.454C408.582 169.047 389.855 153.577 368.06 153.577H271.923C250.124 153.577 231.397 169.047 227.284 190.454L217.248 242.661H256.635Z" fill="white"/>
<path d="M317.393 399.88L378.9 552.52H369.875L294.278 410.66L286.899 413.627L279.765 417.426L334.199 552.52H322.897L256.649 428.205L211.55 446.332V552.52H180.564V598.999H459.436V552.52H428.45V340.698L317.393 399.88Z" fill="white"/>
</svg>
